<svg xmlns="http://www.w3.org/2000/svg" width="1344.281" height="238" viewBox="0 0 1344.281 238">
  <g id="logo_zarezerwuj.pl" data-name="logo zarezerwuj.pl" transform="translate(-340 -1304)">
    <g id="Group_957" data-name="Group 957" transform="translate(-6494.003 1760.61)">
      <path id="Path_634" data-name="Path 634" d="M91.337,110.629a64.533,64.533,0,0,1-2.889-8.195,57,57,0,0,1-1.733-8.825,42.278,42.278,0,0,1-12.45,13.763,31.1,31.1,0,0,1-18.438,5.463q-17.86,0-27.526-9.193T18.636,78.586q0-16.7,12.87-25.9T69.064,43.5H86.189V34.461q0-8.195-4.307-12.712T69.169,17.231q-7.459,0-11.5,3.625T53.62,30.889l-29.627-.105-.105-.63q-.735-14.393,12.5-24.847T71.165-5.146q20.381,0,33.094,10.348t12.712,29.469V81.633a88.817,88.817,0,0,0,1.208,15.023,75.379,75.379,0,0,0,3.835,13.973ZM63.286,90.142A26.324,26.324,0,0,0,77.679,86.15q6.3-3.992,8.51-9.245V60.831H69.064q-9.771,0-14.813,4.885a15.85,15.85,0,0,0-5.043,11.819,11.81,11.81,0,0,0,3.782,9.14Q56.772,90.142,63.286,90.142ZM199.968,23.325l-11.241-.315a20.432,20.432,0,0,0-11.241,2.837,17.976,17.976,0,0,0-6.724,7.985v76.8H140.189V-3.045H168.66l1.366,16.809A35.86,35.86,0,0,1,180.374-.156a24.175,24.175,0,0,1,18.911-4.623q1.944.368,3.94.893Zm65.872,89.51q-24.584,0-39.292-15.759T211.84,57.049v-4.2q0-25.319,13.92-41.709T263.109-5.146q23.008,0,35.72,13.868t12.712,37.506v16.7H243.673l-.21.627q.84,11.2,7.512,18.417T269.1,89.2a59.02,59.02,0,0,0,16.915-2.049,77.738,77.738,0,0,0,14.708-6.461l8.3,18.957q-6.934,5.7-18.175,9.445A78.768,78.768,0,0,1,265.84,112.835Zm-2.732-94.343a15.971,15.971,0,0,0-13.448,6.514q-4.938,6.514-6.093,17.125l.315.525h37.611V39.924q0-9.771-4.57-15.6T263.109,18.492Zm100.542,68.5h56.312v23.638H325.514V92.478l54.106-71.885H327.195V-3.045h90.981V14.423Zm123.97,25.845q-24.584,0-39.292-15.759T433.62,57.049v-4.2q0-25.319,13.92-41.709T484.889-5.146q23.008,0,35.72,13.868t12.712,37.506v16.7H465.453l-.21.627q.84,11.2,7.512,18.417t18.123,7.22a59.02,59.02,0,0,0,16.915-2.049A77.746,77.746,0,0,0,522.5,80.687l8.3,18.957q-6.934,5.7-18.175,9.445A78.768,78.768,0,0,1,487.62,112.835Zm-2.732-94.343a15.971,15.971,0,0,0-13.448,6.514q-4.938,6.514-6.093,17.125l.315.525h37.611V39.924q0-9.771-4.57-15.6T484.889,18.492ZM610.96,23.325l-11.241-.315a20.432,20.432,0,0,0-11.241,2.837,17.978,17.978,0,0,0-6.724,7.985v76.8H551.181V-3.045h28.471l1.366,16.809A35.858,35.858,0,0,1,591.366-.156a24.175,24.175,0,0,1,18.911-4.623q1.943.368,3.94.893ZM728.206,69.971h.63L743.65-3.045h28.786L743.545,110.629H717.91L696.793,54.381l-21.747,56.248h-25.53L620.625-3.045h28.786l15.023,72.806h.63L696.163-1.9ZM857.114,94.24A38.168,38.168,0,0,1,843.771,108a35.556,35.556,0,0,1-18.6,4.833q-17.965,0-28.1-11.5T786.934,65.559v-68.6h30.572V65.926q0,12.425,4.2,17.848t12.4,5.423a30.5,30.5,0,0,0,12.607-2.37,21.268,21.268,0,0,0,8.615-7V-3.045H886V110.629h-26.16Zm92.7-97.285v96.22q0,19.961-10.611,30.835t-29.522,10.874a64.072,64.072,0,0,1-7.669-.42V110.812c4.132,0,11.417-1.336,13.658-4.243s3.362-7.372,3.362-13.4V-3.045Z" transform="translate(7079.009 -390.583)" fill="#3b86fc"/>
      <circle id="Ellipse_19" data-name="Ellipse 19" cx="119" cy="119" r="119" transform="translate(6834.003 -456.61)" fill="#3b86fc"/>
      <path id="Path_635" data-name="Path 635" d="M38.8,85.239H95.107v23.638H.659V90.727L54.765,18.842H2.34V-4.8H93.321V12.671Z" transform="translate(6905.12 -388.832)" fill="#fff"/>
      <path id="Path_660" data-name="Path 660" d="M14,0A14,14,0,1,1,0,14,14,14,0,0,1,14,0Z" transform="translate(8038.003 -308.61)" fill="#cecece"/>
      <path id="Path_644" data-name="Path 644" d="M205.154,72.991q0,16.809-7.775,27.035t-21.712,10.226a24.27,24.27,0,0,1-10.576-2.206,21.719,21.719,0,0,1-7.914-6.479v31.468H136.8V33h18.42l1.191,8.965a24.288,24.288,0,0,1,8.09-7.669,21.88,21.88,0,0,1,11.031-2.7q14.079,0,21.852,11t7.775,28.926ZM184.7,71.416q0-10.732-3.572-17.4A11.65,11.65,0,0,0,170.2,47.356a15.424,15.424,0,0,0-7.879,1.894,13.5,13.5,0,0,0-5.148,5.4V87.9a12.545,12.545,0,0,0,5.148,4.91,17.321,17.321,0,0,0,8.02,1.684q7.424,0,10.891-5.822T184.7,72.889Zm54.561,37.365H218.812V-4.893h20.452Z" transform="translate(7939.021 -388.736)" fill="#cecece"/>
    </g>
  </g>
</svg>
